<mxfile host="app.diagrams.net" modified="2022-04-01T09:09:26.034Z" agent="5.0 (Windows NT 10.0; Win64; x64) AppleWebKit/537.36 (KHTML, like Gecko) Chrome/90.0.4430.212 Safari/537.36" etag="Ri9xLzlsQCKXgcu64iXT" version="16.1.4" type="github">
  <diagram id="CxcaLeXnB662m-q3Z4ex" name="第 1 页">
    <mxGraphModel dx="1422" dy="1963" grid="1" gridSize="10" guides="1" tooltips="1" connect="1" arrows="1" fold="1" page="1" pageScale="1" pageWidth="827" pageHeight="1169" math="0" shadow="0">
      <root>
        <mxCell id="0" />
        <mxCell id="1" parent="0" />
        <mxCell id="cz9klYAGG9J5sm0-0w-0-1" style="edgeStyle=orthogonalEdgeStyle;rounded=0;orthogonalLoop=1;jettySize=auto;html=1;exitX=0.5;exitY=1;exitDx=0;exitDy=0;" parent="1" source="VNCoB3pL2GN9j2kzThXm-1" target="VNCoB3pL2GN9j2kzThXm-4" edge="1">
          <mxGeometry relative="1" as="geometry" />
        </mxCell>
        <mxCell id="VNCoB3pL2GN9j2kzThXm-1" value="&lt;font style=&quot;font-size: 18px&quot;&gt;建立连接&lt;/font&gt;" style="rounded=0;whiteSpace=wrap;html=1;fillColor=#dae8fc;strokeColor=#6c8ebf;" parent="1" vertex="1">
          <mxGeometry x="210" y="160" width="160" height="40" as="geometry" />
        </mxCell>
        <mxCell id="cz9klYAGG9J5sm0-0w-0-5" style="edgeStyle=orthogonalEdgeStyle;rounded=0;orthogonalLoop=1;jettySize=auto;html=1;exitX=0.5;exitY=1;exitDx=0;exitDy=0;entryX=0.5;entryY=0;entryDx=0;entryDy=0;" parent="1" source="VNCoB3pL2GN9j2kzThXm-2" target="VNCoB3pL2GN9j2kzThXm-7" edge="1">
          <mxGeometry relative="1" as="geometry" />
        </mxCell>
        <mxCell id="VNCoB3pL2GN9j2kzThXm-2" value="&lt;font style=&quot;font-size: 18px&quot;&gt;结果转换&lt;br&gt;&lt;/font&gt;" style="rounded=0;whiteSpace=wrap;html=1;fillColor=#d5e8d4;strokeColor=#82b366;" parent="1" vertex="1">
          <mxGeometry x="210" y="400" width="160" height="40" as="geometry" />
        </mxCell>
        <mxCell id="VNCoB3pL2GN9j2kzThXm-3" value="&lt;font style=&quot;font-size: 18px&quot;&gt;释放连接&lt;/font&gt;" style="rounded=0;whiteSpace=wrap;html=1;fillColor=#dae8fc;strokeColor=#6c8ebf;" parent="1" vertex="1">
          <mxGeometry x="210" y="580" width="160" height="40" as="geometry" />
        </mxCell>
        <mxCell id="cz9klYAGG9J5sm0-0w-0-2" style="edgeStyle=orthogonalEdgeStyle;rounded=0;orthogonalLoop=1;jettySize=auto;html=1;exitX=0.5;exitY=1;exitDx=0;exitDy=0;entryX=0.5;entryY=0;entryDx=0;entryDy=0;" parent="1" source="VNCoB3pL2GN9j2kzThXm-4" target="VNCoB3pL2GN9j2kzThXm-5" edge="1">
          <mxGeometry relative="1" as="geometry" />
        </mxCell>
        <mxCell id="VNCoB3pL2GN9j2kzThXm-4" value="&lt;font style=&quot;font-size: 18px&quot;&gt;创建Statement&lt;/font&gt;" style="rounded=0;whiteSpace=wrap;html=1;fillColor=#f8cecc;strokeColor=#b85450;" parent="1" vertex="1">
          <mxGeometry x="210" y="220" width="160" height="40" as="geometry" />
        </mxCell>
        <mxCell id="cz9klYAGG9J5sm0-0w-0-3" style="edgeStyle=orthogonalEdgeStyle;rounded=0;orthogonalLoop=1;jettySize=auto;html=1;exitX=0.5;exitY=1;exitDx=0;exitDy=0;entryX=0.5;entryY=0;entryDx=0;entryDy=0;" parent="1" source="VNCoB3pL2GN9j2kzThXm-5" target="VNCoB3pL2GN9j2kzThXm-6" edge="1">
          <mxGeometry relative="1" as="geometry" />
        </mxCell>
        <mxCell id="VNCoB3pL2GN9j2kzThXm-5" value="&lt;span style=&quot;font-size: 18px&quot;&gt;提交查询&lt;/span&gt;" style="rounded=0;whiteSpace=wrap;html=1;fillColor=#d5e8d4;strokeColor=#82b366;" parent="1" vertex="1">
          <mxGeometry x="210" y="280" width="160" height="40" as="geometry" />
        </mxCell>
        <mxCell id="cz9klYAGG9J5sm0-0w-0-4" style="edgeStyle=orthogonalEdgeStyle;rounded=0;orthogonalLoop=1;jettySize=auto;html=1;exitX=0.5;exitY=1;exitDx=0;exitDy=0;entryX=0.5;entryY=0;entryDx=0;entryDy=0;" parent="1" source="VNCoB3pL2GN9j2kzThXm-6" target="VNCoB3pL2GN9j2kzThXm-2" edge="1">
          <mxGeometry relative="1" as="geometry" />
        </mxCell>
        <mxCell id="VNCoB3pL2GN9j2kzThXm-6" value="&lt;span style=&quot;font-size: 18px&quot;&gt;获取结果&lt;br&gt;&lt;/span&gt;" style="rounded=0;whiteSpace=wrap;html=1;fillColor=#d5e8d4;strokeColor=#82b366;" parent="1" vertex="1">
          <mxGeometry x="210" y="340" width="160" height="40" as="geometry" />
        </mxCell>
        <mxCell id="cz9klYAGG9J5sm0-0w-0-6" style="edgeStyle=orthogonalEdgeStyle;rounded=0;orthogonalLoop=1;jettySize=auto;html=1;exitX=0.5;exitY=1;exitDx=0;exitDy=0;entryX=0.5;entryY=0;entryDx=0;entryDy=0;" parent="1" source="VNCoB3pL2GN9j2kzThXm-7" target="VNCoB3pL2GN9j2kzThXm-8" edge="1">
          <mxGeometry relative="1" as="geometry" />
        </mxCell>
        <mxCell id="VNCoB3pL2GN9j2kzThXm-7" value="&lt;font style=&quot;font-size: 18px&quot;&gt;关闭结果&lt;br&gt;&lt;/font&gt;" style="rounded=0;whiteSpace=wrap;html=1;fillColor=#d5e8d4;strokeColor=#82b366;" parent="1" vertex="1">
          <mxGeometry x="210" y="460" width="160" height="40" as="geometry" />
        </mxCell>
        <mxCell id="cz9klYAGG9J5sm0-0w-0-7" style="edgeStyle=orthogonalEdgeStyle;rounded=0;orthogonalLoop=1;jettySize=auto;html=1;exitX=0.5;exitY=1;exitDx=0;exitDy=0;entryX=0.5;entryY=0;entryDx=0;entryDy=0;" parent="1" source="VNCoB3pL2GN9j2kzThXm-8" target="VNCoB3pL2GN9j2kzThXm-3" edge="1">
          <mxGeometry relative="1" as="geometry" />
        </mxCell>
        <mxCell id="VNCoB3pL2GN9j2kzThXm-8" value="&lt;font style=&quot;font-size: 18px&quot;&gt;关闭Statement&lt;/font&gt;" style="rounded=0;whiteSpace=wrap;html=1;fillColor=#f8cecc;strokeColor=#b85450;" parent="1" vertex="1">
          <mxGeometry x="210" y="520" width="160" height="40" as="geometry" />
        </mxCell>
        <mxCell id="cz9klYAGG9J5sm0-0w-0-8" value="" style="shape=curlyBracket;whiteSpace=wrap;html=1;rounded=1;flipH=1;" parent="1" vertex="1">
          <mxGeometry x="370" y="300" width="50" height="180" as="geometry" />
        </mxCell>
        <mxCell id="cz9klYAGG9J5sm0-0w-0-9" value="StatementCallback" style="text;strokeColor=none;fillColor=none;html=1;fontSize=24;fontStyle=1;verticalAlign=middle;align=center;" parent="1" vertex="1">
          <mxGeometry x="430" y="370" width="220" height="40" as="geometry" />
        </mxCell>
        <mxCell id="cz9klYAGG9J5sm0-0w-0-11" value="&lt;font style=&quot;font-size: 24px&quot;&gt;过滤&lt;/font&gt;" style="rounded=0;whiteSpace=wrap;html=1;fillColor=#e1d5e7;strokeColor=#9673a6;" parent="1" vertex="1">
          <mxGeometry x="1290" y="317" width="160" height="63" as="geometry" />
        </mxCell>
        <mxCell id="cz9klYAGG9J5sm0-0w-0-15" value="&lt;span style=&quot;font-size: 18px&quot;&gt;直播&lt;/span&gt;" style="rounded=0;whiteSpace=wrap;html=1;fillColor=#d5e8d4;strokeColor=#82b366;" parent="1" vertex="1">
          <mxGeometry x="1480" y="40" width="160" height="30" as="geometry" />
        </mxCell>
        <mxCell id="cz9klYAGG9J5sm0-0w-0-19" value="&lt;span style=&quot;font-size: 18px&quot;&gt;分区过滤&lt;/span&gt;" style="rounded=0;whiteSpace=wrap;html=1;fillColor=#e1d5e7;strokeColor=#9673a6;" parent="1" vertex="1">
          <mxGeometry x="1480" y="220" width="160" height="30" as="geometry" />
        </mxCell>
        <mxCell id="cz9klYAGG9J5sm0-0w-0-20" value="&lt;span style=&quot;font-size: 18px&quot;&gt;关注过滤&lt;/span&gt;" style="rounded=0;whiteSpace=wrap;html=1;fillColor=#e1d5e7;strokeColor=#9673a6;" parent="1" vertex="1">
          <mxGeometry x="1480" y="258" width="160" height="30" as="geometry" />
        </mxCell>
        <mxCell id="cz9klYAGG9J5sm0-0w-0-21" value="&lt;span style=&quot;font-size: 18px&quot;&gt;黑名单过滤&lt;/span&gt;" style="rounded=0;whiteSpace=wrap;html=1;fillColor=#e1d5e7;strokeColor=#9673a6;" parent="1" vertex="1">
          <mxGeometry x="1480" y="297" width="160" height="30" as="geometry" />
        </mxCell>
        <mxCell id="cz9klYAGG9J5sm0-0w-0-22" value="&lt;span style=&quot;font-size: 18px&quot;&gt;开关播过滤&lt;/span&gt;" style="rounded=0;whiteSpace=wrap;html=1;fillColor=#e1d5e7;strokeColor=#9673a6;" parent="1" vertex="1">
          <mxGeometry x="1480" y="335" width="160" height="30" as="geometry" />
        </mxCell>
        <mxCell id="cz9klYAGG9J5sm0-0w-0-23" value="&lt;span style=&quot;font-size: 18px&quot;&gt;用户疲劳过滤&lt;/span&gt;" style="rounded=0;whiteSpace=wrap;html=1;fillColor=#e1d5e7;strokeColor=#9673a6;" parent="1" vertex="1">
          <mxGeometry x="1480" y="373" width="160" height="30" as="geometry" />
        </mxCell>
        <mxCell id="cz9klYAGG9J5sm0-0w-0-24" value="&lt;span style=&quot;font-size: 18px&quot;&gt;热度过滤&lt;/span&gt;" style="rounded=0;whiteSpace=wrap;html=1;fillColor=#e1d5e7;strokeColor=#9673a6;" parent="1" vertex="1">
          <mxGeometry x="1480" y="412" width="160" height="30" as="geometry" />
        </mxCell>
        <mxCell id="cz9klYAGG9J5sm0-0w-0-25" value="&lt;span style=&quot;font-size: 18px&quot;&gt;……&lt;/span&gt;" style="rounded=0;whiteSpace=wrap;html=1;fillColor=#e1d5e7;strokeColor=#9673a6;" parent="1" vertex="1">
          <mxGeometry x="1480" y="450" width="160" height="30" as="geometry" />
        </mxCell>
        <mxCell id="cz9klYAGG9J5sm0-0w-0-26" value="" style="shape=curlyBracket;whiteSpace=wrap;html=1;rounded=1;fillColor=#e1d5e7;strokeColor=#9673a6;" parent="1" vertex="1">
          <mxGeometry x="1460" y="240" width="20" height="220" as="geometry" />
        </mxCell>
        <mxCell id="cz9klYAGG9J5sm0-0w-0-27" value="&lt;font style=&quot;font-size: 24px&quot;&gt;排序&lt;/font&gt;" style="rounded=0;whiteSpace=wrap;html=1;fillColor=#fff2cc;strokeColor=#d6b656;" parent="1" vertex="1">
          <mxGeometry x="1290" y="514" width="160" height="63" as="geometry" />
        </mxCell>
        <mxCell id="cz9klYAGG9J5sm0-0w-0-28" value="&lt;span style=&quot;font-size: 18px&quot;&gt;热度排序&lt;/span&gt;" style="rounded=0;whiteSpace=wrap;html=1;fillColor=#fff2cc;strokeColor=#d6b656;" parent="1" vertex="1">
          <mxGeometry x="1480" y="490" width="160" height="30" as="geometry" />
        </mxCell>
        <mxCell id="cz9klYAGG9J5sm0-0w-0-29" value="&lt;span style=&quot;font-size: 18px&quot;&gt;随机排序&lt;/span&gt;" style="rounded=0;whiteSpace=wrap;html=1;fillColor=#fff2cc;strokeColor=#d6b656;" parent="1" vertex="1">
          <mxGeometry x="1480" y="530" width="160" height="30" as="geometry" />
        </mxCell>
        <mxCell id="cz9klYAGG9J5sm0-0w-0-30" value="&lt;font style=&quot;font-size: 24px&quot;&gt;查询&lt;/font&gt;" style="rounded=0;whiteSpace=wrap;html=1;fillColor=#d5e8d4;strokeColor=#82b366;" parent="1" vertex="1">
          <mxGeometry x="1290" y="96" width="160" height="63" as="geometry" />
        </mxCell>
        <mxCell id="cz9klYAGG9J5sm0-0w-0-31" value="" style="shape=curlyBracket;whiteSpace=wrap;html=1;rounded=1;fontSize=24;fillColor=#fff2cc;strokeColor=#d6b656;" parent="1" vertex="1">
          <mxGeometry x="1460" y="505" width="20" height="85" as="geometry" />
        </mxCell>
        <mxCell id="cz9klYAGG9J5sm0-0w-0-32" value="&lt;span style=&quot;font-size: 18px&quot;&gt;……&lt;/span&gt;" style="rounded=0;whiteSpace=wrap;html=1;fillColor=#fff2cc;strokeColor=#d6b656;" parent="1" vertex="1">
          <mxGeometry x="1480" y="570" width="160" height="30" as="geometry" />
        </mxCell>
        <mxCell id="cz9klYAGG9J5sm0-0w-0-35" value="" style="shape=singleArrow;direction=south;whiteSpace=wrap;html=1;fontSize=24;arrowWidth=0.36666666666666664;arrowSize=0.3972602739726027;" parent="1" vertex="1">
          <mxGeometry x="1340" y="215" width="60" height="73" as="geometry" />
        </mxCell>
        <mxCell id="cz9klYAGG9J5sm0-0w-0-36" value="" style="shape=singleArrow;direction=south;whiteSpace=wrap;html=1;fontSize=24;arrowWidth=0.36666666666666664;arrowSize=0.3972602739726027;" parent="1" vertex="1">
          <mxGeometry x="1340" y="425" width="60" height="73" as="geometry" />
        </mxCell>
        <mxCell id="9uduE4ppgANr0hHN3RFP-1" value="&lt;span style=&quot;font-size: 18px&quot;&gt;视频&lt;/span&gt;" style="rounded=0;whiteSpace=wrap;html=1;fillColor=#d5e8d4;strokeColor=#82b366;" vertex="1" parent="1">
          <mxGeometry x="1480" y="76" width="160" height="30" as="geometry" />
        </mxCell>
        <mxCell id="9uduE4ppgANr0hHN3RFP-2" value="&lt;span style=&quot;font-size: 18px&quot;&gt;帖子&lt;/span&gt;" style="rounded=0;whiteSpace=wrap;html=1;fillColor=#d5e8d4;strokeColor=#82b366;" vertex="1" parent="1">
          <mxGeometry x="1480" y="113" width="160" height="30" as="geometry" />
        </mxCell>
        <mxCell id="9uduE4ppgANr0hHN3RFP-3" value="&lt;span style=&quot;font-size: 18px&quot;&gt;H5&lt;/span&gt;" style="rounded=0;whiteSpace=wrap;html=1;fillColor=#d5e8d4;strokeColor=#82b366;" vertex="1" parent="1">
          <mxGeometry x="1480" y="149" width="160" height="30" as="geometry" />
        </mxCell>
        <mxCell id="9uduE4ppgANr0hHN3RFP-4" value="&lt;span style=&quot;font-size: 18px&quot;&gt;……&lt;/span&gt;" style="rounded=0;whiteSpace=wrap;html=1;fillColor=#d5e8d4;strokeColor=#82b366;" vertex="1" parent="1">
          <mxGeometry x="1480" y="185" width="160" height="30" as="geometry" />
        </mxCell>
        <mxCell id="9uduE4ppgANr0hHN3RFP-5" value="" style="shape=curlyBracket;whiteSpace=wrap;html=1;rounded=1;fillColor=#d5e8d4;strokeColor=#82b366;" vertex="1" parent="1">
          <mxGeometry x="1460" y="54" width="20" height="147" as="geometry" />
        </mxCell>
        <mxCell id="9uduE4ppgANr0hHN3RFP-7" value="&lt;font style=&quot;font-size: 20px&quot;&gt;策&lt;br&gt;&lt;br&gt;略&lt;br&gt;&lt;br&gt;执&lt;br&gt;&lt;br&gt;行&lt;br&gt;&lt;/font&gt;" style="text;html=1;align=center;verticalAlign=middle;resizable=0;points=[];autosize=1;strokeColor=none;fillColor=none;" vertex="1" parent="1">
          <mxGeometry x="1215" y="191.5" width="40" height="120" as="geometry" />
        </mxCell>
        <mxCell id="9uduE4ppgANr0hHN3RFP-8" value="&lt;font style=&quot;font-size: 24px&quot;&gt;人群匹配&lt;/font&gt;" style="rounded=0;whiteSpace=wrap;html=1;fillColor=#dae8fc;strokeColor=#6c8ebf;" vertex="1" parent="1">
          <mxGeometry x="1290" y="-66" width="160" height="63" as="geometry" />
        </mxCell>
        <mxCell id="9uduE4ppgANr0hHN3RFP-9" value="&lt;span style=&quot;font-size: 18px&quot;&gt;离线化人群&lt;/span&gt;" style="rounded=0;whiteSpace=wrap;html=1;fillColor=#dae8fc;strokeColor=#6c8ebf;" vertex="1" parent="1">
          <mxGeometry x="1480" y="-96" width="160" height="30" as="geometry" />
        </mxCell>
        <mxCell id="9uduE4ppgANr0hHN3RFP-10" value="&lt;span style=&quot;font-size: 18px&quot;&gt;实时化人群&lt;/span&gt;" style="rounded=0;whiteSpace=wrap;html=1;fillColor=#dae8fc;strokeColor=#6c8ebf;" vertex="1" parent="1">
          <mxGeometry x="1480" y="-49.5" width="160" height="30" as="geometry" />
        </mxCell>
        <mxCell id="9uduE4ppgANr0hHN3RFP-11" value="&lt;span style=&quot;font-size: 18px&quot;&gt;……&lt;/span&gt;" style="rounded=0;whiteSpace=wrap;html=1;fillColor=#dae8fc;strokeColor=#6c8ebf;" vertex="1" parent="1">
          <mxGeometry x="1480" y="-3" width="160" height="30" as="geometry" />
        </mxCell>
        <mxCell id="9uduE4ppgANr0hHN3RFP-12" value="" style="shape=curlyBracket;whiteSpace=wrap;html=1;rounded=1;fillColor=#dae8fc;strokeColor=#6c8ebf;" vertex="1" parent="1">
          <mxGeometry x="1460" y="-76" width="20" height="87" as="geometry" />
        </mxCell>
        <mxCell id="9uduE4ppgANr0hHN3RFP-13" value="" style="shape=singleArrow;direction=south;whiteSpace=wrap;html=1;fontSize=24;arrowWidth=0.36666666666666664;arrowSize=0.3972602739726027;" vertex="1" parent="1">
          <mxGeometry x="1340" y="9" width="60" height="73" as="geometry" />
        </mxCell>
        <mxCell id="9uduE4ppgANr0hHN3RFP-15" value="" style="shape=crossbar;whiteSpace=wrap;html=1;rounded=1;direction=south;" vertex="1" parent="1">
          <mxGeometry x="1250" y="-60" width="22.59" height="610" as="geometry" />
        </mxCell>
        <mxCell id="9uduE4ppgANr0hHN3RFP-17" value="&lt;font style=&quot;font-size: 20px&quot;&gt;流&lt;br&gt;量&lt;br&gt;分&lt;br&gt;派&lt;br&gt;，&lt;br&gt;选&lt;br&gt;择&lt;br&gt;策&lt;br&gt;略&lt;br&gt;计&lt;br&gt;划&lt;br&gt;&lt;/font&gt;" style="text;html=1;align=center;verticalAlign=middle;resizable=0;points=[];autosize=1;strokeColor=none;fillColor=none;" vertex="1" parent="1">
          <mxGeometry x="780" y="156.5" width="40" height="190" as="geometry" />
        </mxCell>
        <mxCell id="9uduE4ppgANr0hHN3RFP-18" value="&lt;font style=&quot;font-size: 20px&quot;&gt;策&lt;br&gt;略&lt;br&gt;优&lt;br&gt;先&lt;br&gt;级&lt;br&gt;排&lt;br&gt;序&lt;br&gt;&lt;/font&gt;" style="text;html=1;align=center;verticalAlign=middle;resizable=0;points=[];autosize=1;strokeColor=none;fillColor=none;" vertex="1" parent="1">
          <mxGeometry x="970" y="191.5" width="40" height="120" as="geometry" />
        </mxCell>
      </root>
    </mxGraphModel>
  </diagram>
</mxfile>
